<svg xmlns="http://www.w3.org/2000/svg" width="4824" height="3960" viewBox="0 0 4824 3960" version="1.1"><path d="M 1023.426 1428.479 C 1022.308 1429.337, 1020.790 1435.190, 1017.327 1452 C 1015.517 1460.783, 1012.657 1475.187, 1011.965 1479 C 1009.120 1494.680, 1005.810 1512.202, 1004.029 1521 C 1001.257 1534.700, 999.830 1542.080, 999.003 1547 C 998.494 1550.025, 997.358 1555.650, 996.478 1559.500 C 995.598 1563.350, 994.479 1568.750, 993.990 1571.500 C 993.502 1574.250, 992.379 1580.100, 991.495 1584.500 C 990.611 1588.900, 989.490 1594.750, 989.005 1597.500 C 988.520 1600.250, 987.224 1607.150, 986.125 1612.833 C 985.026 1618.517, 984.373 1623.808, 984.674 1624.592 C 984.974 1625.376, 986.392 1626.311, 987.823 1626.670 C 989.254 1627.030, 1037.467 1627.363, 1094.962 1627.412 C 1175.868 1627.480, 1199.984 1627.223, 1201.642 1626.273 C 1203.360 1625.288, 1204.102 1623.212, 1205.391 1615.773 C 1207.164 1605.542, 1207.837 1601.903, 1211.080 1585 C 1212.293 1578.675, 1213.626 1571.025, 1214.043 1568 C 1214.459 1564.975, 1215.527 1558.900, 1216.416 1554.500 C 1217.306 1550.100, 1218.267 1544.925, 1218.552 1543 C 1219.093 1539.354, 1221.590 1527.051, 1223.018 1521 C 1224.381 1515.224, 1227.158 1499.531, 1228.946 1487.500 C 1229.437 1484.200, 1230.324 1479.928, 1230.919 1478.007 C 1231.514 1476.085, 1232 1472.967, 1232 1471.078 C 1232 1469.188, 1232.423 1466.260, 1232.939 1464.571 C 1234.129 1460.680, 1237.741 1437.614, 1238.275 1430.500 L 1238.500 1427.500 1131.628 1427.479 C 1060.402 1427.465, 1024.313 1427.798, 1023.426 1428.479 M 2846.365 1682.750 C 2804.375 1682.961, 2793.005 1683.289, 2792.157 1684.311 C 2790.195 1686.675, 2788.557 1788.554, 2789.975 1819.992 C 2790.819 1838.692, 2790.749 1841.679, 2789.437 1842.992 C 2788.111 1844.318, 2772.212 1844.531, 2657.714 1844.760 C 2586.096 1844.903, 2526.490 1844.783, 2525.256 1844.493 L 2523.012 1843.965 2522.756 1763.732 L 2522.500 1683.500 2456.299 1683.877 C 2419.889 1684.084, 2387.489 1684.534, 2384.299 1684.877 L 2378.500 1685.500 2377.692 1700.500 C 2377.248 1708.750, 2377.085 1811.243, 2377.329 1928.261 C 2377.678 2095.146, 2378.040 2141.343, 2379.009 2142.511 C 2380.082 2143.804, 2389.622 2144, 2451.523 2144 L 2522.800 2144 2523.170 2057.250 C 2523.572 1962.944, 2523.445 1964.983, 2528.839 1966.597 C 2530.302 1967.035, 2588.064 1967.462, 2657.197 1967.547 C 2770.126 1967.685, 2783.140 1967.862, 2785.316 1969.287 C 2787.628 1970.802, 2787.765 1971.498, 2788.353 1984.687 C 2788.691 1992.284, 2789.255 2030, 2789.604 2068.500 C 2789.954 2107, 2790.633 2139.252, 2791.113 2140.171 C 2792.308 2142.460, 2797.637 2142.749, 2859 2143.864 C 2887.325 2144.378, 2914.848 2145.128, 2920.162 2145.530 C 2925.476 2145.932, 2931.016 2145.962, 2932.474 2145.596 L 2935.125 2144.931 2934.904 1914.380 L 2934.682 1683.830 2932.276 1682.915 C 2930.953 1682.412, 2923.037 1682.108, 2914.685 1682.241 C 2906.333 1682.374, 2875.589 1682.603, 2846.365 1682.750 M 3581 1683.015 C 3566.975 1683.401, 3536.734 1683.781, 3513.797 1683.859 C 3484.557 1683.958, 3471.333 1684.347, 3469.547 1685.161 L 3467 1686.321 3466.753 1741.411 C 3466.618 1771.710, 3466.505 1833.625, 3466.503 1879 C 3466.501 1940.948, 3466.197 1962.496, 3465.283 1965.500 C 3464.613 1967.700, 3463.338 1972.604, 3462.449 1976.398 C 3461.560 1980.191, 3460.470 1984.016, 3460.027 1984.898 C 3459.584 1985.779, 3458.384 1988.218, 3457.361 1990.318 C 3452.634 2000.016, 3436.837 2013.337, 3424.500 2018.028 C 3416.136 2021.208, 3404.494 2024.461, 3396 2025.990 C 3392.425 2026.634, 3387.250 2027.601, 3384.500 2028.138 C 3369.040 2031.162, 3280.711 2031.743, 3261 2028.950 C 3256.875 2028.366, 3249.900 2027.496, 3245.500 2027.017 C 3228.585 2025.177, 3219.388 2023.899, 3216.500 2022.989 C 3214.850 2022.469, 3210.407 2021.324, 3206.627 2020.444 C 3193.076 2017.291, 3182.083 2011.499, 3171.780 2002.082 C 3162.045 1993.184, 3159.305 1985.226, 3155.058 1953.500 C 3154.343 1948.162, 3153.989 1902.687, 3153.993 1816.815 C 3153.997 1740.170, 3153.625 1687.144, 3153.073 1685.692 L 3152.146 1683.253 3082.823 1683.702 C 3028.074 1684.057, 3013.221 1684.422, 3012.171 1685.440 C 3010.172 1687.379, 3008.660 1789.615, 3009.417 1871.636 C 3010.022 1937.124, 3010.873 1960.804, 3013.025 1972 C 3015.144 1983.020, 3017.237 1992.546, 3017.970 1994.500 C 3018.382 1995.600, 3019.503 1999.200, 3020.460 2002.500 C 3021.416 2005.800, 3022.604 2009.281, 3023.100 2010.236 C 3023.595 2011.191, 3024 2012.473, 3024 2013.085 C 3024 2013.697, 3024.633 2015.616, 3025.406 2017.349 C 3026.179 2019.082, 3027.596 2022.652, 3028.554 2025.283 C 3029.512 2027.913, 3030.680 2030.302, 3031.148 2030.592 C 3031.617 2030.881, 3032 2031.754, 3032 2032.532 C 3032 2034.977, 3037.143 2045.108, 3043.839 2055.852 C 3049.684 2065.232, 3062.051 2079.201, 3071.009 2086.541 C 3076.561 2091.090, 3093.715 2103.607, 3096.510 2105.149 C 3098.155 2106.056, 3101.975 2108.192, 3105 2109.895 C 3113.080 2114.444, 3121.285 2118.342, 3132.500 2122.959 C 3133.600 2123.411, 3138.325 2124.940, 3143 2126.355 C 3147.675 2127.770, 3154.650 2129.906, 3158.500 2131.102 C 3162.350 2132.298, 3167.300 2133.636, 3169.500 2134.075 C 3171.700 2134.514, 3176.200 2135.592, 3179.500 2136.471 C 3182.800 2137.350, 3187.525 2138.486, 3190 2138.994 C 3192.475 2139.503, 3197.650 2140.635, 3201.500 2141.509 C 3205.350 2142.383, 3211.425 2143.494, 3215 2143.977 C 3218.575 2144.460, 3226.225 2145.591, 3232 2146.491 C 3237.775 2147.391, 3247.225 2148.515, 3253 2148.990 C 3258.775 2149.464, 3266.875 2150.295, 3271 2150.835 C 3284.142 2152.557, 3328.155 2154.331, 3341.053 2153.659 C 3355.029 2152.931, 3385.116 2150.390, 3395 2149.104 C 3398.575 2148.639, 3404.649 2147.300, 3408.497 2146.129 C 3412.345 2144.958, 3418.061 2144, 3421.200 2144 C 3424.338 2144, 3427.940 2143.580, 3429.203 2143.068 C 3430.466 2142.555, 3433.975 2141.459, 3437 2140.631 C 3452.781 2136.316, 3458.870 2134.732, 3462.500 2133.998 C 3468.499 2132.786, 3474.381 2130.928, 3475.450 2129.907 C 3475.972 2129.408, 3477.647 2129, 3479.171 2129 C 3480.696 2129, 3484.487 2127.875, 3487.596 2126.500 C 3490.705 2125.125, 3493.631 2124, 3494.097 2124 C 3497.256 2124, 3527.682 2108.588, 3534.500 2103.535 C 3536.150 2102.312, 3537.993 2101.129, 3538.595 2100.906 C 3540.276 2100.283, 3548.580 2093.263, 3556.819 2085.500 C 3570.210 2072.884, 3582.422 2056.094, 3591.068 2038.416 C 3593.781 2032.870, 3596 2027.859, 3596 2027.280 C 3596 2026.702, 3596.672 2024.940, 3597.494 2023.364 C 3598.315 2021.789, 3598.990 2019.739, 3598.994 2018.809 C 3598.997 2017.879, 3599.400 2016.871, 3599.890 2016.568 C 3600.379 2016.266, 3601.007 2014.552, 3601.285 2012.759 C 3601.564 2010.967, 3602.778 2006.575, 3603.982 2003 C 3608.762 1988.820, 3609.494 1985.633, 3610.989 1972.500 C 3613.783 1947.972, 3614.196 1922.527, 3613.716 1804.695 C 3613.445 1738.252, 3613.028 1683.695, 3612.789 1683.455 C 3611.777 1682.444, 3605.093 1682.351, 3581 1683.015 M 3780.161 1690.486 C 3775.295 1696.494, 3772.250 1700.081, 3767.500 1705.400 C 3764.455 1708.810, 3754.198 1721.745, 3753.417 1723.161 C 3752.913 1724.075, 3751.148 1726.325, 3749.495 1728.161 C 3747.842 1729.998, 3744.921 1733.525, 3743.004 1736 C 3741.087 1738.475, 3738.678 1741.400, 3737.651 1742.500 C 3736.625 1743.600, 3734.736 1746.075, 3733.454 1748 C 3732.172 1749.925, 3729.780 1752.984, 3728.138 1754.798 C 3726.496 1756.611, 3720.506 1764.259, 3714.827 1771.792 C 3709.147 1779.325, 3703.041 1787.066, 3701.259 1788.994 C 3699.476 1790.922, 3698.013 1792.803, 3698.009 1793.173 C 3698.004 1793.544, 3696.843 1795.222, 3695.428 1796.903 C 3693.902 1798.716, 3692.987 1800.884, 3693.178 1802.230 C 3693.495 1804.465, 3693.787 1804.512, 3712 1805.253 C 3722.175 1805.667, 3815.899 1806.212, 3920.275 1806.464 L 4110.051 1806.922 4116.424 1809.964 C 4127.298 1815.153, 4132 1822.409, 4132 1834 C 4132 1847.279, 4126.187 1854.537, 4111.500 1859.596 C 4106.945 1861.165, 4100.540 1861.305, 4039.500 1861.167 C 4002.650 1861.085, 3959 1860.771, 3942.500 1860.470 C 3918.201 1860.026, 3726.092 1861.524, 3698.133 1862.375 C 3692.514 1862.546, 3690.470 1863.005, 3689.515 1864.311 C 3687.719 1866.767, 3687.426 2043.118, 3689.126 2098.442 C 3690.235 2134.531, 3690.585 2139.585, 3692.079 2141.079 C 3694.893 2143.893, 3717.664 2144.146, 3931 2143.737 C 4116.166 2143.382, 4132.150 2143.221, 4140 2141.624 C 4144.675 2140.673, 4150.975 2139.532, 4154 2139.089 C 4162.083 2137.905, 4170.364 2135.914, 4171.450 2134.893 C 4171.972 2134.402, 4173.688 2134, 4175.262 2134 C 4178.216 2134, 4187.175 2131.564, 4190.236 2129.928 C 4191.191 2129.418, 4192.864 2129, 4193.953 2129 C 4196.155 2129, 4203.313 2125.921, 4203.833 2124.750 C 4204.017 2124.338, 4204.859 2124, 4205.705 2124 C 4207.843 2124, 4221.273 2116.608, 4228.522 2111.442 C 4231.834 2109.081, 4238.232 2103.404, 4242.741 2098.825 C 4253.654 2087.742, 4257.759 2081.985, 4264.009 2069 C 4265.730 2065.425, 4267.499 2061.810, 4267.942 2060.967 C 4268.384 2060.124, 4269.063 2057.992, 4269.450 2056.229 C 4269.837 2054.466, 4270.569 2052.766, 4271.077 2052.452 C 4271.585 2052.139, 4272 2050.634, 4272 2049.108 C 4272 2047.582, 4272.337 2045.997, 4272.750 2045.586 C 4273.872 2044.469, 4275.913 2033.729, 4277.050 2022.957 C 4277.717 2016.643, 4277.727 2009.199, 4277.082 2000.957 C 4275.517 1980.990, 4273.504 1972.332, 4267.421 1959.403 C 4262.731 1949.433, 4250.766 1934.167, 4242.295 1927.347 C 4239.668 1925.231, 4236.393 1922.487, 4235.019 1921.250 C 4233.645 1920.013, 4232.148 1919, 4231.693 1919 C 4231.239 1919, 4229.392 1917.875, 4227.589 1916.500 C 4225.786 1915.125, 4224.014 1914, 4223.650 1914 C 4222.055 1914, 4211.030 1906.406, 4211.313 1905.502 C 4211.486 1904.951, 4214.749 1902.916, 4218.564 1900.980 C 4227.348 1896.522, 4231.852 1893.427, 4237.780 1887.774 C 4245.452 1880.457, 4248.578 1876.651, 4252.048 1870.404 C 4253.851 1867.157, 4256.099 1863.120, 4257.044 1861.432 C 4257.988 1859.745, 4259.074 1856.938, 4259.457 1855.194 C 4259.840 1853.450, 4260.569 1851.766, 4261.077 1851.452 C 4261.585 1851.139, 4262 1849.585, 4262 1848 C 4262 1846.415, 4262.391 1844.876, 4262.869 1844.581 C 4263.346 1844.286, 4264.041 1842.144, 4264.413 1839.822 C 4264.784 1837.499, 4265.457 1835.127, 4265.908 1834.550 C 4267.009 1833.142, 4268.324 1822.912, 4268.358 1815.500 C 4268.412 1803.484, 4266.023 1785.541, 4262.767 1773.500 C 4260.754 1766.053, 4250.266 1746.054, 4245.196 1739.993 C 4244.049 1738.622, 4241.674 1735.795, 4239.917 1733.711 C 4237.149 1730.426, 4222.695 1718, 4221.642 1718 C 4221.435 1718, 4218.187 1715.936, 4214.424 1713.413 C 4206.391 1708.026, 4186.184 1698, 4183.360 1698 C 4182.282 1698, 4180.973 1697.613, 4180.450 1697.140 C 4179.599 1696.369, 4175.567 1694.965, 4165.099 1691.792 C 4159.334 1690.045, 4148.666 1688, 4145.315 1688 C 4143.564 1688, 4140.888 1687.528, 4139.369 1686.950 C 4137.851 1686.373, 4129.834 1685.261, 4121.554 1684.480 C 4109.152 1683.309, 4078.257 1683.098, 3946.161 1683.277 L 3785.822 1683.495 3780.161 1690.486 M 3833.951 1965.450 C 3832.748 1966.652, 3832.703 2018.983, 3833.904 2020.879 C 3834.637 2022.036, 3850.448 2022.232, 3932.638 2022.103 C 3986.462 2022.018, 4045.125 2022.413, 4063 2022.979 C 4097.600 2024.076, 4105.996 2023.601, 4117.590 2019.892 C 4121.017 2018.796, 4124.810 2016.753, 4126.263 2015.222 C 4133.336 2007.769, 4135.521 1989.136, 4130.485 1979.214 C 4128.591 1975.481, 4120.222 1969.041, 4115 1967.297 C 4113.075 1966.654, 4109.250 1965.791, 4106.500 1965.379 C 4098.936 1964.246, 3835.087 1964.315, 3833.951 1965.450" stroke="none" fill="#fa931d" fill-rule="evenodd"/><path d="M 1305.599 1427.208 C 1304.168 1429.392, 1303.053 1434.753, 1301.034 1449.150 C 1300.598 1452.258, 1299.947 1455.277, 1299.587 1455.859 C 1299.227 1456.442, 1298.480 1459.974, 1297.928 1463.709 C 1295.853 1477.733, 1293.463 1490.405, 1291.918 1495.571 C 1291.413 1497.260, 1291 1499.963, 1291 1501.578 C 1291 1503.192, 1290.536 1506.085, 1289.969 1508.007 C 1289.017 1511.229, 1288.157 1516.305, 1286.045 1531.150 C 1285.603 1534.258, 1284.935 1537.297, 1284.559 1537.904 C 1284.184 1538.511, 1283.471 1542.043, 1282.974 1545.754 C 1281.052 1560.100, 1280.097 1565.614, 1279.068 1568.321 C 1278.481 1569.866, 1278 1572.531, 1278 1574.244 C 1278 1575.957, 1277.584 1578.740, 1277.075 1580.429 C 1276.567 1582.118, 1275.408 1588, 1274.499 1593.500 C 1273.591 1599, 1272.375 1605.143, 1271.797 1607.150 C 1271.219 1609.158, 1270.691 1612.533, 1270.623 1614.650 L 1270.500 1618.500 1413.500 1619.009 C 1492.150 1619.288, 1556.662 1619.626, 1556.859 1619.759 C 1557.288 1620.046, 1556.775 1623.448, 1554.489 1635.500 C 1553.550 1640.450, 1552.399 1646.750, 1551.932 1649.500 C 1551.465 1652.250, 1550.353 1657.875, 1549.461 1662 C 1548.570 1666.125, 1547.449 1671.975, 1546.971 1675 C 1546.493 1678.025, 1545.397 1684.100, 1544.535 1688.500 C 1543.673 1692.900, 1542.545 1698.975, 1542.028 1702 C 1541.511 1705.025, 1540.372 1711.550, 1539.497 1716.500 C 1538.621 1721.450, 1537.524 1727.975, 1537.058 1731 C 1536.593 1734.025, 1535.442 1740.325, 1534.501 1745 C 1533.560 1749.675, 1532.427 1755.525, 1531.983 1758 C 1531.539 1760.475, 1530.425 1766.325, 1529.507 1771 C 1528.590 1775.675, 1527.437 1781.975, 1526.946 1785 C 1526.455 1788.025, 1525.347 1794.550, 1524.483 1799.500 C 1523.620 1804.450, 1522.499 1810.975, 1521.993 1814 C 1521.486 1817.025, 1520.370 1823.100, 1519.511 1827.500 C 1518.652 1831.900, 1517.556 1837.750, 1517.075 1840.500 C 1516.593 1843.250, 1515.451 1849.325, 1514.537 1854 C 1513.622 1858.675, 1512.479 1865.200, 1511.997 1868.500 C 1511.515 1871.800, 1510.696 1876.075, 1510.177 1878 C 1509.658 1879.925, 1508.694 1884.875, 1508.035 1889 C 1505.556 1904.516, 1503.873 1914.657, 1502.973 1919.500 C 1501.465 1927.621, 1498.967 1940.181, 1497.948 1944.764 C 1497.427 1947.110, 1497 1950.035, 1497 1951.264 C 1497.001 1952.494, 1495.854 1959.575, 1494.452 1967 C 1493.050 1974.425, 1490.784 1986.575, 1489.416 1994 C 1488.048 2001.425, 1486.243 2011.100, 1485.404 2015.500 C 1483.285 2026.608, 1482.258 2032.159, 1480.500 2042 C 1479.665 2046.675, 1478.552 2052.750, 1478.027 2055.500 C 1475.016 2071.270, 1476.231 2075.523, 1482.764 2072.087 C 1483.719 2071.584, 1490.800 2068.177, 1498.500 2064.514 C 1522.770 2052.969, 1578.730 2024.404, 1593.500 2016.021 C 1595.700 2014.772, 1601.100 2011.844, 1605.500 2009.514 C 1609.900 2007.184, 1615.075 2004.389, 1617 2003.302 C 1618.925 2002.216, 1623.200 1999.839, 1626.500 1998.022 C 1629.800 1996.204, 1633.627 1993.993, 1635.004 1993.108 C 1639.793 1990.033, 1641.523 1989.023, 1645.500 1986.985 C 1647.700 1985.858, 1650.850 1984.124, 1652.500 1983.132 C 1654.150 1982.141, 1658.183 1979.839, 1661.462 1978.017 C 1664.741 1976.195, 1669.782 1973.196, 1672.664 1971.352 C 1675.546 1969.508, 1678.115 1968, 1678.373 1968 C 1678.886 1968, 1691.094 1960.566, 1703.195 1952.885 C 1707.427 1950.198, 1711.324 1948, 1711.856 1948 C 1713.333 1948, 1717.950 1942.124, 1718.398 1939.673 C 1718.617 1938.478, 1719.551 1933, 1720.474 1927.500 C 1721.397 1922, 1722.527 1915.925, 1722.986 1914 C 1723.829 1910.459, 1725.487 1901.061, 1727.044 1891 C 1728.901 1878.992, 1729.841 1874.066, 1730.467 1873.053 C 1730.828 1872.470, 1731.529 1868.957, 1732.026 1865.246 C 1733.712 1852.664, 1734.924 1845.510, 1735.964 1842.007 C 1736.534 1840.085, 1737 1836.967, 1737 1835.078 C 1737 1833.188, 1737.415 1830.260, 1737.922 1828.571 C 1739.300 1823.983, 1741.153 1813.972, 1743.858 1796.500 C 1744.369 1793.200, 1745.285 1789.233, 1745.894 1787.685 C 1746.502 1786.137, 1747 1783.019, 1747 1780.756 C 1747 1778.493, 1747.421 1775.260, 1747.934 1773.571 C 1749.465 1768.540, 1751.144 1759.957, 1752.056 1752.500 C 1752.526 1748.650, 1753.654 1741.900, 1754.561 1737.500 C 1755.469 1733.100, 1756.575 1726.800, 1757.020 1723.500 C 1757.465 1720.200, 1758.564 1714.125, 1759.462 1710 C 1761.028 1702.808, 1761.518 1700.072, 1764.017 1684.558 C 1764.632 1680.740, 1765.555 1676.832, 1766.067 1675.874 C 1766.580 1674.916, 1767 1671.717, 1767 1668.766 C 1767 1665.815, 1767.400 1662.972, 1767.889 1662.450 C 1768.943 1661.324, 1770.983 1651.546, 1771.634 1644.500 C 1771.889 1641.750, 1772.509 1638.600, 1773.014 1637.500 C 1773.518 1636.400, 1774.423 1633.025, 1775.026 1630 C 1775.628 1626.975, 1776.353 1623.375, 1776.638 1622 L 1777.155 1619.500 1917.134 1619.500 C 1994.123 1619.500, 2057.935 1619.197, 2058.938 1618.826 C 2060.015 1618.428, 2060.985 1616.788, 2061.303 1614.826 C 2061.599 1612.997, 2062.576 1608.350, 2063.473 1604.500 C 2064.370 1600.650, 2065.507 1595.475, 2065.999 1593 C 2066.491 1590.525, 2067.622 1585.125, 2068.514 1581 C 2069.405 1576.875, 2070.537 1571.025, 2071.031 1568 C 2071.524 1564.975, 2072.648 1558.675, 2073.528 1554 C 2074.409 1549.325, 2075.534 1543.025, 2076.028 1540 C 2076.991 1534.112, 2079.526 1520.367, 2081.006 1513 C 2081.504 1510.525, 2082.407 1505.800, 2083.014 1502.500 C 2083.620 1499.200, 2084.540 1495.118, 2085.058 1493.429 C 2085.576 1491.740, 2086 1488.729, 2086 1486.738 C 2086 1484.747, 2086.415 1482.862, 2086.922 1482.548 C 2087.428 1482.235, 2088.156 1479.052, 2088.540 1475.476 C 2088.923 1471.899, 2089.633 1468.727, 2090.118 1468.427 C 2090.603 1468.127, 2091.005 1466.221, 2091.011 1464.191 C 2091.017 1462.161, 2091.692 1458.291, 2092.511 1455.591 C 2093.330 1452.891, 2094 1449.205, 2094 1447.400 C 2094 1445.595, 2094.450 1443.840, 2095 1443.500 C 2095.550 1443.160, 2096 1441.028, 2096 1438.762 C 2096 1436.496, 2096.536 1433.159, 2097.192 1431.346 C 2097.847 1429.533, 2098.097 1427.764, 2097.747 1427.413 C 2097.396 1427.063, 1921.022 1426.614, 1705.805 1426.416 C 1490.587 1426.218, 1312.845 1425.784, 1310.823 1425.452 C 1307.700 1424.940, 1306.912 1425.205, 1305.599 1427.208 M 2166 1650.589 C 2160.775 1654.682, 2152.675 1660.815, 2148 1664.218 C 2130.068 1677.271, 2123 1683.587, 2123 1686.557 C 2123 1688.568, 2125.419 1692.821, 2129.238 1697.525 C 2130.120 1698.611, 2134.784 1704.450, 2139.603 1710.500 C 2144.422 1716.550, 2148.846 1721.989, 2149.433 1722.586 C 2150.020 1723.184, 2152.960 1727.122, 2155.966 1731.338 C 2158.972 1735.553, 2162.252 1739.262, 2163.254 1739.581 C 2164.805 1740.073, 2174.208 1735.176, 2176 1732.943 C 2176.275 1732.600, 2180.775 1729.251, 2186 1725.500 C 2191.225 1721.749, 2195.725 1718.384, 2196 1718.020 C 2196.275 1717.657, 2199.200 1715.386, 2202.500 1712.974 C 2205.800 1710.562, 2209.367 1707.786, 2210.426 1706.805 C 2211.486 1705.825, 2213.173 1704.762, 2214.176 1704.444 C 2215.179 1704.126, 2216 1703.446, 2216 1702.933 C 2216 1702.420, 2216.659 1702, 2217.465 1702 C 2218.270 1702, 2219.426 1701.072, 2220.033 1699.938 C 2220.980 1698.169, 2220.514 1697.139, 2216.747 1692.688 C 2214.332 1689.835, 2210.384 1684.800, 2207.972 1681.500 C 2205.561 1678.200, 2203.199 1675.050, 2202.725 1674.500 C 2200.300 1671.690, 2187.352 1653.768, 2184.161 1648.806 C 2179.226 1641.129, 2177.910 1641.259, 2166 1650.589 M 978.892 1667.202 C 977.024 1668.709, 974 1679.091, 974 1683.995 C 974 1685.844, 973.585 1688.740, 973.078 1690.429 C 972.098 1693.692, 970.200 1703.238, 968.889 1711.500 C 966.503 1726.523, 965.901 1729.757, 964.994 1732.399 C 964.448 1733.994, 964 1736.887, 964 1738.828 C 964 1740.770, 963.584 1743.740, 963.076 1745.429 C 962.227 1748.253, 961.090 1754.680, 958.908 1769 C 958.447 1772.025, 957.337 1778.100, 956.441 1782.500 C 954.836 1790.384, 954.263 1793.673, 952.082 1807.500 C 951.474 1811.350, 950.717 1815.175, 950.399 1816 C 950.081 1816.825, 949.421 1819.975, 948.931 1823 C 948.442 1826.025, 947.331 1832.100, 946.462 1836.500 C 945.594 1840.900, 944.495 1847.200, 944.021 1850.500 C 943.547 1853.800, 942.422 1859.875, 941.520 1864 C 940.619 1868.125, 939.475 1873.750, 938.979 1876.500 C 938.482 1879.250, 937.346 1885.550, 936.454 1890.500 C 935.562 1895.450, 934.459 1901.525, 934.004 1904 C 933.548 1906.475, 932.484 1912.550, 931.638 1917.500 C 929.274 1931.333, 928.265 1936.812, 926.484 1945.500 C 925.582 1949.900, 924.482 1956.200, 924.041 1959.500 C 923.600 1962.800, 922.732 1968.200, 922.112 1971.500 C 921.493 1974.800, 920.516 1980.200, 919.943 1983.500 C 919.369 1986.800, 918.281 1992.650, 917.526 1996.500 C 916.770 2000.350, 915.641 2006.875, 915.017 2011 C 914.392 2015.125, 913.269 2021.875, 912.521 2026 C 911.772 2030.125, 910.634 2036.425, 909.991 2040 C 909.348 2043.575, 908.213 2049.650, 907.468 2053.500 C 906.724 2057.350, 905.613 2063.650, 905.001 2067.500 C 904.389 2071.350, 903.263 2077.650, 902.499 2081.500 C 901.736 2085.350, 900.592 2091.875, 899.958 2096 C 899.325 2100.125, 898.212 2106.650, 897.485 2110.500 C 896.759 2114.350, 895.633 2120.875, 894.984 2125 C 893.873 2132.057, 892.259 2140.884, 889.940 2152.580 C 888.552 2159.582, 889.184 2160.629, 895.311 2161.475 C 903 2162.537, 1102.630 2162.091, 1105.484 2161.006 C 1107.916 2160.082, 1108.232 2159.160, 1109.429 2149.500 C 1110.901 2137.618, 1111.784 2132.159, 1112.391 2131.177 C 1112.763 2130.575, 1113.523 2127.026, 1114.079 2123.291 C 1114.635 2119.556, 1115.456 2114.025, 1115.904 2111 C 1116.352 2107.975, 1117.261 2103.025, 1117.924 2100 C 1118.588 2096.975, 1119.524 2092.250, 1120.004 2089.500 C 1120.776 2085.084, 1122.806 2074.312, 1124.526 2065.500 C 1124.848 2063.850, 1125.525 2060.025, 1126.030 2057 C 1126.535 2053.975, 1127.410 2049.928, 1127.974 2048.007 C 1128.538 2046.085, 1129 2042.967, 1129 2041.078 C 1129 2039.188, 1129.413 2036.260, 1129.918 2034.571 C 1131.463 2029.405, 1133.853 2016.733, 1135.928 2002.709 C 1136.480 1998.974, 1137.246 1995.411, 1137.629 1994.792 C 1138.012 1994.172, 1138.678 1990.703, 1139.110 1987.083 C 1140.312 1977.010, 1141.819 1968.607, 1142.964 1965.594 C 1143.534 1964.096, 1144 1960.643, 1144 1957.921 C 1144 1955.200, 1144.402 1952.191, 1144.894 1951.236 C 1145.987 1949.114, 1148.178 1936.491, 1148.754 1929 C 1148.986 1925.975, 1149.586 1923.072, 1150.088 1922.550 C 1150.590 1922.027, 1151 1920.187, 1151 1918.459 C 1151 1916.731, 1151.670 1913.109, 1152.489 1910.409 C 1153.308 1907.709, 1153.983 1903.806, 1153.989 1901.736 C 1153.995 1899.666, 1154.406 1897.191, 1154.903 1896.236 C 1156.008 1894.111, 1157.840 1884.068, 1158.959 1874 C 1159.417 1869.875, 1160.529 1863.350, 1161.428 1859.500 C 1162.328 1855.650, 1163.471 1849.575, 1163.967 1846 C 1164.464 1842.425, 1165.601 1836.350, 1166.494 1832.500 C 1167.387 1828.650, 1168.345 1823.025, 1168.624 1820 C 1168.903 1816.975, 1169.529 1813.600, 1170.016 1812.500 C 1170.973 1810.336, 1172.753 1800.382, 1174.039 1790 C 1174.482 1786.425, 1175.591 1780.125, 1176.505 1776 C 1177.418 1771.875, 1178.535 1765.350, 1178.986 1761.500 C 1179.800 1754.547, 1181.270 1747.312, 1183.064 1741.429 C 1183.579 1739.740, 1184 1736.342, 1184 1733.879 C 1184 1731.416, 1184.437 1728.963, 1184.972 1728.428 C 1186.025 1727.375, 1187.966 1716.811, 1188.724 1708 C 1188.985 1704.975, 1189.600 1702.008, 1190.091 1701.407 C 1190.928 1700.383, 1191.964 1695.142, 1193.930 1682 C 1194.383 1678.975, 1195.210 1675.098, 1195.768 1673.384 C 1196.327 1671.670, 1196.464 1669.751, 1196.074 1669.119 C 1195.548 1668.269, 1167.991 1667.903, 1089.932 1667.709 C 1031.944 1667.565, 983.600 1667.100, 982.500 1666.676 C 981.270 1666.201, 979.880 1666.404, 978.892 1667.202 M 926.232 1691.037 C 920.585 1696.543, 913.610 1702.588, 910.732 1704.472 C 907.854 1706.355, 903.948 1709.294, 902.051 1711.004 C 900.154 1712.713, 895.429 1716.202, 891.551 1718.757 C 887.673 1721.312, 884.275 1723.661, 884 1723.977 C 883.725 1724.293, 881.476 1726.115, 879.003 1728.026 C 871.460 1733.854, 859.867 1743.835, 846.537 1755.979 C 832.274 1768.971, 829.347 1771.667, 827.507 1773.500 C 826.403 1774.600, 822.350 1778.153, 818.500 1781.394 C 796.123 1800.235, 739.638 1856.523, 716.538 1883 C 713.899 1886.025, 710.369 1890.075, 708.694 1892 C 707.020 1893.925, 703.816 1897.532, 701.575 1900.015 C 699.334 1902.498, 696.082 1906.323, 694.349 1908.515 C 692.615 1910.707, 688.208 1916.247, 684.554 1920.827 C 680.900 1925.406, 675.593 1932.381, 672.761 1936.327 C 669.929 1940.272, 666.333 1945.075, 664.771 1947 C 655.657 1958.230, 626.673 2000.358, 621.427 2010 C 620.379 2011.925, 619 2014.175, 618.363 2015 C 617.725 2015.825, 616.198 2018.300, 614.969 2020.500 C 613.741 2022.700, 609.965 2029.450, 606.578 2035.500 C 597.648 2051.453, 582.069 2083.482, 575.935 2098.500 C 574.661 2101.620, 567.426 2120.736, 564.573 2128.521 C 563.158 2132.383, 562 2136.326, 562 2137.285 C 562 2138.243, 561.572 2139.809, 561.050 2140.764 C 559.935 2142.801, 553.148 2170.232, 551.961 2177.500 C 549.643 2191.693, 546.890 2212.946, 545.872 2224.500 C 544.323 2242.096, 545.871 2269.537, 549.540 2289.500 C 550.450 2294.450, 551.578 2300.750, 552.046 2303.500 C 552.514 2306.250, 553.639 2310.750, 554.545 2313.500 C 555.450 2316.250, 556.550 2319.850, 556.988 2321.500 C 559.248 2330.009, 569.584 2355.563, 572.966 2361 C 573.479 2361.825, 575.348 2365.313, 577.120 2368.750 C 578.892 2372.188, 580.602 2375.005, 580.921 2375.011 C 581.239 2375.018, 582.360 2376.818, 583.411 2379.011 C 584.462 2381.205, 585.699 2383, 586.161 2383 C 586.622 2383, 587 2383.567, 587 2384.260 C 587 2384.953, 588.125 2386.734, 589.500 2388.217 C 590.875 2389.699, 592 2391.241, 592 2391.642 C 592 2392.043, 593.695 2394.425, 595.767 2396.936 C 597.838 2399.446, 600.852 2403.300, 602.463 2405.500 C 610.877 2416.986, 641.166 2444.713, 655 2453.593 C 657.475 2455.181, 659.725 2456.730, 660 2457.035 C 660.678 2457.786, 673.134 2466, 673.595 2466 C 673.796 2466, 676.332 2467.500, 679.231 2469.334 C 686.198 2473.743, 721.764 2491, 723.883 2491 C 724.291 2491, 726.958 2492.125, 729.808 2493.500 C 732.658 2494.875, 735.449 2496, 736.009 2496 C 736.569 2496, 737.809 2496.405, 738.764 2496.900 C 739.719 2497.396, 743.200 2498.584, 746.500 2499.540 C 749.800 2500.497, 753.400 2501.600, 754.500 2501.991 C 755.600 2502.381, 758.075 2503.262, 760 2503.949 C 761.925 2504.635, 765.075 2505.559, 767 2506.001 C 768.925 2506.444, 773.200 2507.579, 776.500 2508.524 C 779.800 2509.468, 783.625 2510.446, 785 2510.696 C 786.375 2510.946, 788.400 2511.527, 789.500 2511.987 C 791.404 2512.783, 798.164 2514.265, 808 2516.044 C 810.475 2516.491, 816.100 2517.604, 820.500 2518.515 C 833.761 2521.263, 838.072 2521.969, 848 2523.020 C 853.225 2523.573, 858.175 2524.308, 859 2524.654 C 859.825 2524.999, 864.100 2525.639, 868.500 2526.075 C 872.900 2526.512, 883.700 2527.594, 892.500 2528.481 C 913.686 2530.615, 981.869 2531.688, 995.599 2530.103 C 1001.045 2529.475, 1011.800 2528.517, 1019.500 2527.976 C 1048.752 2525.918, 1057.547 2525.162, 1059 2524.580 C 1060.397 2524.021, 1067.928 2523.076, 1087.500 2521.006 C 1091.900 2520.540, 1100.450 2519.453, 1106.500 2518.590 C 1112.550 2517.727, 1119.300 2516.783, 1121.500 2516.492 C 1126.505 2515.830, 1140.312 2513.163, 1145.116 2511.929 C 1147.105 2511.418, 1150.563 2511, 1152.801 2511 C 1155.039 2511, 1158.096 2510.534, 1159.594 2509.964 C 1161.092 2509.395, 1165.059 2508.473, 1168.409 2507.917 C 1182.178 2505.630, 1184.763 2505.176, 1190.500 2504.032 C 1193.800 2503.375, 1197.882 2502.424, 1199.571 2501.918 C 1201.260 2501.413, 1203.481 2501, 1204.507 2501 C 1205.533 2501, 1209.326 2500.308, 1212.936 2499.463 C 1219.644 2497.893, 1221.651 2497.397, 1233 2494.500 C 1236.575 2493.588, 1241.300 2492.404, 1243.500 2491.871 C 1245.700 2491.337, 1249.585 2490.248, 1252.134 2489.450 C 1254.683 2488.653, 1257.699 2488, 1258.837 2488 C 1259.975 2488, 1261.940 2487.608, 1263.203 2487.129 C 1265.521 2486.251, 1272.721 2484.166, 1281 2481.976 C 1283.475 2481.321, 1287.075 2480.211, 1289 2479.509 C 1290.925 2478.807, 1296.550 2477.007, 1301.500 2475.509 C 1306.450 2474.011, 1311.400 2472.451, 1312.500 2472.042 C 1317.317 2470.253, 1321.647 2468.792, 1323.500 2468.331 C 1325.801 2467.758, 1327.971 2466.939, 1333.284 2464.639 C 1335.365 2463.737, 1337.734 2463, 1338.547 2463 C 1339.361 2463, 1340.809 2462.596, 1341.764 2462.103 C 1342.719 2461.609, 1345.525 2460.430, 1348 2459.483 C 1356.403 2456.267, 1357.498 2455.816, 1360.331 2454.407 C 1361.888 2453.633, 1363.731 2453, 1364.427 2453 C 1365.613 2453, 1370.292 2451.061, 1374.236 2448.936 C 1375.191 2448.421, 1376.585 2448, 1377.333 2448 C 1378.599 2448, 1383.193 2446.114, 1387.236 2443.936 C 1388.191 2443.421, 1389.587 2443, 1390.337 2443 C 1391.088 2443, 1393.818 2441.875, 1396.404 2440.500 C 1398.990 2439.125, 1401.690 2438, 1402.404 2438 C 1403.118 2438, 1405.818 2436.875, 1408.404 2435.500 C 1410.990 2434.125, 1413.955 2433, 1414.994 2433 C 1416.032 2433, 1417.119 2432.617, 1417.408 2432.148 C 1417.698 2431.680, 1420.087 2430.511, 1422.717 2429.552 C 1425.348 2428.592, 1429.975 2426.680, 1433 2425.302 C 1438.149 2422.958, 1440.868 2421.781, 1447 2419.247 C 1448.375 2418.679, 1451.975 2417.088, 1455 2415.711 C 1458.025 2414.335, 1463.200 2411.987, 1466.500 2410.493 C 1469.800 2408.999, 1473.175 2407.374, 1474 2406.882 C 1474.825 2406.390, 1476.175 2405.724, 1477 2405.403 C 1480.868 2403.896, 1483.718 2402.643, 1486.154 2401.378 C 1487.614 2400.620, 1489.527 2400, 1490.404 2400 C 1491.282 2400, 1492 2399.550, 1492 2399 C 1492 2398.450, 1492.556 2398, 1493.236 2398 C 1494.388 2398, 1503.632 2393.891, 1507 2391.882 C 1507.825 2391.390, 1509.175 2390.727, 1510 2390.408 C 1513.244 2389.155, 1537.366 2377.534, 1543.500 2374.268 C 1544.600 2373.683, 1547.975 2371.984, 1551 2370.493 C 1565.005 2363.591, 1578.102 2356.644, 1578.586 2355.861 C 1578.879 2355.388, 1579.954 2355, 1580.976 2355 C 1581.997 2355, 1582.983 2354.662, 1583.167 2354.250 C 1583.350 2353.838, 1585.525 2352.483, 1588 2351.240 C 1590.475 2349.997, 1595.650 2347.189, 1599.500 2345 C 1603.350 2342.811, 1608.525 2340.003, 1611 2338.760 C 1613.475 2337.517, 1615.650 2336.162, 1615.833 2335.750 C 1616.017 2335.338, 1616.939 2335, 1617.883 2335 C 1618.827 2335, 1620.068 2334.532, 1620.640 2333.960 C 1622.044 2332.556, 1627.871 2329.222, 1631.250 2327.889 C 1632.763 2327.292, 1634 2326.398, 1634 2325.902 C 1634 2325.406, 1634.873 2325, 1635.941 2325 C 1637.009 2325, 1638.161 2324.549, 1638.502 2323.997 C 1638.842 2323.446, 1641.006 2322.064, 1643.311 2320.926 C 1648.574 2318.327, 1654.428 2315.155, 1659.323 2312.250 C 1661.408 2311.012, 1663.715 2310, 1664.450 2310 C 1665.185 2310, 1666.045 2309.325, 1666.362 2308.500 C 1666.678 2307.675, 1667.814 2307, 1668.885 2307 C 1669.957 2307, 1670.983 2306.662, 1671.167 2306.250 C 1671.350 2305.838, 1673.300 2304.626, 1675.500 2303.557 C 1677.700 2302.488, 1680.850 2300.662, 1682.500 2299.499 C 1684.150 2298.336, 1687.075 2296.594, 1689 2295.628 C 1690.925 2294.661, 1694.750 2292.564, 1697.500 2290.966 C 1700.250 2289.369, 1703.175 2287.746, 1704 2287.361 C 1704.825 2286.976, 1707.750 2285.247, 1710.500 2283.519 C 1713.250 2281.792, 1716.175 2280.062, 1717 2279.676 C 1717.825 2279.290, 1720.750 2277.606, 1723.500 2275.934 C 1726.250 2274.262, 1729.287 2272.640, 1730.250 2272.330 C 1731.213 2272.020, 1732 2271.369, 1732 2270.883 C 1732 2270.398, 1732.620 2270, 1733.378 2270 C 1734.135 2270, 1735.315 2269.325, 1736 2268.500 C 1736.685 2267.675, 1738.090 2267, 1739.122 2267 C 1740.155 2267, 1741 2266.622, 1741 2266.161 C 1741 2265.699, 1742.795 2264.462, 1744.989 2263.411 C 1747.182 2262.360, 1748.982 2261.211, 1748.989 2260.858 C 1748.995 2260.506, 1750.125 2259.934, 1751.500 2259.589 C 1752.875 2259.244, 1754 2258.520, 1754 2257.981 C 1754 2257.441, 1754.675 2257, 1755.500 2257 C 1756.325 2257, 1757 2256.599, 1757 2256.108 C 1757 2255.618, 1758.125 2254.934, 1759.500 2254.589 C 1760.875 2254.244, 1762 2253.520, 1762 2252.981 C 1762 2252.441, 1762.520 2252, 1763.156 2252 C 1763.791 2252, 1765.786 2250.875, 1767.589 2249.500 C 1769.392 2248.125, 1771.534 2247, 1772.350 2247 C 1773.166 2247, 1773.983 2246.644, 1774.167 2246.210 C 1774.350 2245.775, 1780.575 2241.631, 1788 2237 C 1795.425 2232.369, 1801.650 2228.225, 1801.833 2227.790 C 1802.017 2227.356, 1802.834 2227, 1803.650 2227 C 1804.466 2227, 1806.608 2225.875, 1808.411 2224.500 C 1810.214 2223.125, 1812.209 2222, 1812.844 2222 C 1813.480 2222, 1814 2221.571, 1814 2221.047 C 1814 2220.523, 1815.554 2219.356, 1817.454 2218.455 C 1819.354 2217.553, 1821.434 2216.182, 1822.076 2215.408 C 1822.719 2214.634, 1823.631 2214, 1824.103 2214 C 1824.575 2214, 1827.423 2212.425, 1830.433 2210.500 C 1833.442 2208.575, 1836.268 2207, 1836.712 2207 C 1837.157 2207, 1838.734 2205.875, 1840.217 2204.500 C 1841.699 2203.125, 1843.200 2202, 1843.552 2202 C 1843.904 2202, 1845.601 2200.988, 1847.325 2199.750 C 1850.815 2197.244, 1852.985 2195.933, 1857.704 2193.481 C 1859.466 2192.565, 1861.434 2191.182, 1862.076 2190.408 C 1862.719 2189.634, 1863.799 2189, 1864.476 2189 C 1865.154 2189, 1866.922 2187.875, 1868.405 2186.500 C 1869.889 2185.125, 1871.375 2184, 1871.707 2184 C 1872.039 2184, 1873.786 2182.875, 1875.589 2181.500 C 1877.392 2180.125, 1879.281 2179, 1879.787 2179 C 1880.294 2179, 1881.922 2177.875, 1883.405 2176.500 C 1884.889 2175.125, 1886.327 2174, 1886.600 2174 C 1887.408 2174, 1899.469 2165.569, 1899.833 2164.750 C 1900.017 2164.338, 1900.804 2164, 1901.583 2164 C 1902.362 2164, 1903 2163.550, 1903 2163 C 1903 2162.450, 1903.437 2162, 1903.971 2162 C 1905.118 2162, 1914.350 2155.838, 1914.833 2154.750 C 1915.017 2154.338, 1915.649 2154, 1916.239 2154 C 1916.829 2154, 1918.786 2152.875, 1920.589 2151.500 C 1922.392 2150.125, 1924.106 2149, 1924.400 2149 C 1924.939 2149, 1942.476 2136.937, 1944.708 2135.031 C 1945.372 2134.464, 1946.385 2134, 1946.958 2134 C 1947.531 2134, 1948 2133.580, 1948 2133.067 C 1948 2132.554, 1948.821 2131.874, 1949.824 2131.556 C 1950.827 2131.238, 1952.521 2130.195, 1953.589 2129.239 C 1954.657 2128.282, 1958.763 2125.305, 1962.714 2122.622 C 1966.665 2119.940, 1970.801 2116.902, 1971.907 2115.872 C 1973.012 2114.843, 1974.190 2114, 1974.525 2114 C 1974.860 2114, 1976.608 2112.875, 1978.411 2111.500 C 1980.214 2110.125, 1982.101 2109, 1982.605 2109 C 1983.108 2109, 1984.641 2107.976, 1986.010 2106.723 C 1987.380 2105.471, 1991.619 2102.488, 1995.431 2100.093 C 1999.244 2097.699, 2003.294 2094.869, 2004.431 2093.804 C 2005.569 2092.739, 2007.962 2090.961, 2009.750 2089.852 C 2011.537 2088.744, 2013 2087.533, 2013 2087.163 C 2013 2086.792, 2014.237 2085.928, 2015.750 2085.243 C 2017.263 2084.558, 2020.525 2082.205, 2023 2080.014 C 2025.475 2077.824, 2028.025 2076.024, 2028.667 2076.016 C 2029.308 2076.007, 2029.983 2075.634, 2030.167 2075.187 C 2030.350 2074.740, 2033.173 2072.413, 2036.441 2070.015 C 2039.708 2067.617, 2043.393 2064.775, 2044.630 2063.700 C 2045.867 2062.625, 2047.752 2061.240, 2048.819 2060.623 C 2050.894 2059.422, 2062.166 2051.027, 2063 2050.061 C 2063.275 2049.742, 2065.300 2048.277, 2067.500 2046.804 C 2069.700 2045.332, 2073.023 2042.748, 2074.886 2041.063 C 2076.748 2039.379, 2078.599 2038, 2078.999 2038 C 2079.400 2038, 2080.801 2036.928, 2082.114 2035.617 C 2083.426 2034.306, 2085.891 2032.394, 2087.590 2031.367 C 2091.948 2028.734, 2098.852 2023.456, 2103.206 2019.428 C 2105.245 2017.543, 2107.270 2015.993, 2107.706 2015.984 C 2108.143 2015.975, 2109.910 2014.738, 2111.634 2013.234 C 2116.809 2008.721, 2119.552 2006.559, 2121.578 2005.401 C 2122.635 2004.797, 2124.175 2003.106, 2125 2001.644 C 2126.420 1999.128, 2126.357 1998.867, 2123.819 1996.743 C 2122.344 1995.509, 2119.775 1992.303, 2118.109 1989.618 C 2116.443 1986.932, 2113.820 1983.332, 2112.278 1981.618 C 2110.737 1979.903, 2108.458 1977.188, 2107.214 1975.584 C 2105.970 1973.981, 2102.262 1969.810, 2098.976 1966.315 C 2095.689 1962.821, 2093 1959.597, 2093 1959.151 C 2093 1958.704, 2090.709 1955.900, 2087.910 1952.920 C 2085.110 1949.939, 2081.204 1945.025, 2079.229 1942 C 2076.156 1937.294, 2067.228 1924.652, 2064.751 1921.500 C 2064.319 1920.950, 2061.432 1916.900, 2058.336 1912.500 C 2055.240 1908.100, 2052.425 1904.275, 2052.080 1904 C 2051.735 1903.725, 2048.994 1900.350, 2045.990 1896.500 C 2042.985 1892.650, 2040.045 1889.050, 2039.457 1888.500 C 2038.868 1887.950, 2037.085 1885.700, 2035.496 1883.500 C 2033.906 1881.300, 2032.354 1879.275, 2032.047 1879 C 2031.740 1878.725, 2029.636 1876.025, 2027.373 1873 C 2025.109 1869.975, 2021.714 1865.925, 2019.829 1864 C 2017.943 1862.075, 2015.538 1859.037, 2014.485 1857.250 C 2013.431 1855.463, 2012.216 1854, 2011.784 1854 C 2011.353 1854, 2011 1853.484, 2011 1852.853 C 2011 1851.649, 2005.460 1844.562, 2000.761 1839.755 C 1999.242 1838.202, 1998 1836.597, 1998 1836.188 C 1998 1834.963, 1989.247 1824.849, 1975.591 1810.297 C 1971.026 1805.431, 1969.037 1804, 1966.841 1804 C 1964.346 1804, 1964 1804.368, 1964 1807.022 C 1964 1809.164, 1965.178 1811.323, 1968.042 1814.429 C 1970.264 1816.841, 1972.929 1820.543, 1973.964 1822.657 C 1975.823 1826.456, 1975.821 1826.525, 1973.795 1828.700 C 1972.668 1829.909, 1969.813 1831.808, 1967.450 1832.918 C 1965.087 1834.029, 1960.757 1836.864, 1957.827 1839.219 C 1954.897 1841.573, 1950.699 1844.826, 1948.500 1846.447 C 1946.300 1848.068, 1944.275 1849.682, 1944 1850.033 C 1943.725 1850.384, 1942.751 1851.082, 1941.836 1851.585 C 1940.920 1852.088, 1938.220 1854.306, 1935.836 1856.514 C 1930.408 1861.539, 1926.856 1863.811, 1925.275 1863.270 C 1923.886 1862.794, 1915 1850.412, 1915 1848.952 C 1915 1846.985, 1910.151 1848.108, 1906.159 1851 C 1903.881 1852.650, 1901.739 1854, 1901.398 1854 C 1900.471 1854, 1886.552 1864.205, 1886.167 1865.167 C 1885.983 1865.625, 1885.448 1866, 1884.976 1866 C 1884.504 1866, 1878.495 1869.938, 1871.622 1874.750 C 1846.934 1892.037, 1837.462 1898.521, 1835.003 1899.819 C 1833.629 1900.545, 1831.793 1901.782, 1830.923 1902.569 C 1830.054 1903.356, 1829.114 1904, 1828.836 1904 C 1828.167 1904, 1807.440 1917.561, 1798.325 1923.962 C 1794.379 1926.733, 1790.861 1929, 1790.508 1929 C 1790.155 1929, 1788.434 1930.014, 1786.683 1931.253 C 1784.932 1932.491, 1782.600 1934.040, 1781.500 1934.694 C 1773.245 1939.603, 1753.436 1952.533, 1753.167 1953.188 C 1752.983 1953.635, 1752.412 1954, 1751.897 1954 C 1751.382 1954, 1749.282 1955.054, 1747.230 1956.342 C 1745.179 1957.631, 1740.800 1960.179, 1737.500 1962.006 C 1734.200 1963.832, 1729.925 1966.199, 1728 1967.265 C 1726.075 1968.331, 1723.790 1969.832, 1722.921 1970.601 C 1722.053 1971.371, 1721.019 1972, 1720.623 1972 C 1720 1972, 1713.688 1975.715, 1707.442 1979.756 C 1706.374 1980.447, 1704.825 1981.315, 1704 1981.685 C 1703.175 1982.055, 1699.017 1984.527, 1694.761 1987.179 C 1690.504 1989.831, 1686.567 1992, 1686.011 1992 C 1685.455 1992, 1685 1992.398, 1685 1992.883 C 1685 1993.369, 1684.213 1994.038, 1683.250 1994.369 C 1682.287 1994.701, 1680.150 1995.797, 1678.500 1996.805 C 1676.850 1997.813, 1671.900 2000.571, 1667.500 2002.934 C 1663.100 2005.296, 1659.050 2007.568, 1658.500 2007.982 C 1657.950 2008.396, 1654.800 2010.219, 1651.500 2012.032 C 1648.200 2013.845, 1643.475 2016.452, 1641 2017.824 C 1638.525 2019.197, 1635.713 2020.698, 1634.750 2021.160 C 1633.787 2021.622, 1632.213 2022.379, 1631.250 2022.841 C 1629.577 2023.646, 1621.447 2028.103, 1614 2032.299 C 1605.771 2036.935, 1574.425 2053.042, 1567 2056.449 C 1565.075 2057.333, 1562.825 2058.496, 1562 2059.034 C 1561.175 2059.572, 1556 2062.079, 1550.500 2064.603 C 1545 2067.128, 1536.675 2071.013, 1532 2073.236 C 1521.963 2078.010, 1511.451 2082.876, 1504.500 2085.967 C 1501.750 2087.190, 1496.273 2089.722, 1492.328 2091.595 C 1488.384 2093.468, 1484.756 2095, 1484.266 2095 C 1483.776 2095, 1481.604 2095.847, 1479.438 2096.882 C 1473.756 2099.597, 1466.353 2102.799, 1451.500 2108.966 C 1450.400 2109.422, 1447.700 2110.547, 1445.500 2111.466 C 1443.300 2112.384, 1440.600 2113.507, 1439.500 2113.961 C 1438.400 2114.415, 1435.025 2115.907, 1432 2117.276 C 1428.975 2118.645, 1424.475 2120.547, 1422 2121.503 C 1414.886 2124.248, 1413.838 2124.685, 1407.812 2127.419 C 1404.683 2128.839, 1401.603 2130, 1400.966 2130 C 1400.330 2130, 1398.614 2130.620, 1397.154 2131.378 C 1395.694 2132.136, 1393.375 2133.218, 1392 2133.783 C 1389.470 2134.821, 1370.184 2142.530, 1366.500 2143.976 C 1363.507 2145.150, 1355.776 2148.135, 1353.500 2148.995 C 1352.400 2149.411, 1350.150 2150.305, 1348.500 2150.983 C 1346.850 2151.661, 1343.025 2153.046, 1340 2154.062 C 1330.929 2157.109, 1327.075 2158.592, 1326.352 2159.315 C 1325.975 2159.692, 1324.857 2160, 1323.867 2160 C 1322.236 2160, 1317.270 2161.843, 1312.764 2164.122 C 1311.809 2164.605, 1310.361 2165, 1309.547 2165 C 1308.734 2165, 1306.365 2165.737, 1304.284 2166.639 C 1302.203 2167.540, 1299.600 2168.609, 1298.500 2169.014 C 1297.400 2169.419, 1295.150 2170.305, 1293.500 2170.983 C 1291.850 2171.661, 1288.025 2173.018, 1285 2174 C 1281.975 2174.982, 1278.375 2176.242, 1277 2176.802 C 1275.625 2177.361, 1271.800 2178.607, 1268.500 2179.570 C 1265.200 2180.534, 1261.825 2181.652, 1261 2182.054 C 1259.654 2182.711, 1254.789 2184.246, 1237 2189.626 C 1233.975 2190.541, 1231.073 2191.674, 1230.550 2192.145 C 1230.028 2192.615, 1228.559 2193, 1227.286 2193 C 1226.014 2193, 1224.191 2193.424, 1223.236 2193.941 C 1222.281 2194.459, 1218.800 2195.630, 1215.500 2196.544 C 1212.200 2197.458, 1208.375 2198.573, 1207 2199.023 C 1205.625 2199.472, 1201.800 2200.576, 1198.500 2201.476 C 1195.200 2202.376, 1190.475 2203.709, 1188 2204.439 C 1185.525 2205.169, 1181.475 2206.321, 1179 2206.999 C 1176.525 2207.677, 1173.375 2208.594, 1172 2209.036 C 1166.396 2210.838, 1150.009 2215.197, 1140 2217.547 C 1135.875 2218.516, 1129.800 2219.949, 1126.500 2220.732 C 1123.200 2221.515, 1118.700 2222.551, 1116.500 2223.034 C 1114.300 2223.517, 1109.350 2224.634, 1105.500 2225.517 C 1097.491 2227.355, 1092.982 2228.314, 1084.500 2229.983 C 1081.200 2230.632, 1077.118 2231.576, 1075.429 2232.082 C 1073.740 2232.587, 1071.490 2232.996, 1070.429 2232.992 C 1069.368 2232.987, 1065.575 2233.648, 1062 2234.460 C 1047.513 2237.750, 1026.192 2241.217, 1010 2242.915 C 1001.710 2243.784, 991.435 2245.098, 977.731 2247.040 C 974.009 2247.568, 966.809 2248.005, 961.731 2248.011 C 956.654 2248.017, 946.200 2248.691, 938.500 2249.509 C 922.521 2251.207, 888.139 2251.487, 878.192 2250 C 874.511 2249.450, 867 2248.565, 861.500 2248.034 C 842.175 2246.166, 825.724 2243.079, 816 2239.495 C 814.075 2238.786, 810.250 2237.504, 807.500 2236.646 C 800.125 2234.346, 795.127 2232.461, 794.352 2231.685 C 793.975 2231.308, 792.954 2230.997, 792.083 2230.994 C 791.212 2230.990, 789.150 2230.255, 787.500 2229.358 C 785.850 2228.462, 781.277 2226.071, 777.338 2224.045 C 767.648 2219.061, 753.886 2208.920, 746.270 2201.153 C 742.821 2197.636, 740 2194.432, 740 2194.032 C 740 2193.633, 739.040 2192.225, 737.867 2190.903 C 734.932 2187.596, 729 2178.328, 729 2177.048 C 729 2176.472, 728.550 2176, 728 2176 C 727.450 2176, 727 2175.340, 727 2174.534 C 727 2173.728, 726.263 2171.365, 725.361 2169.284 C 718.150 2152.631, 717.679 2149.316, 717.645 2115 C 717.619 2088.103, 718.558 2073.142, 720.466 2070.055 C 720.863 2069.413, 721.547 2066.550, 721.987 2063.694 C 722.426 2060.837, 723.539 2056.025, 724.460 2053 C 725.381 2049.975, 726.360 2046.150, 726.635 2044.500 C 726.911 2042.850, 727.488 2040.600, 727.919 2039.500 C 729.842 2034.582, 731.239 2030.308, 731.677 2028 C 732.193 2025.279, 733.472 2021.987, 735.622 2017.846 C 736.380 2016.386, 737 2014.467, 737 2013.582 C 737 2012.697, 737.404 2011.191, 737.897 2010.236 C 738.391 2009.281, 739.569 2006.475, 740.514 2004 C 741.460 2001.525, 743.306 1997.244, 744.617 1994.486 C 745.928 1991.728, 747 1988.939, 747 1988.289 C 747 1987.638, 748.125 1984.990, 749.500 1982.404 C 750.875 1979.818, 752 1977.132, 752 1976.434 C 752 1975.737, 752.337 1975.017, 752.750 1974.833 C 753.163 1974.650, 754.240 1972.925, 755.145 1971 C 757.880 1965.180, 765.055 1950.601, 765.973 1949 C 766.447 1948.175, 767.558 1945.832, 768.444 1943.792 C 769.329 1941.753, 770.491 1939.814, 771.027 1939.483 C 771.562 1939.153, 772 1938.225, 772 1937.421 C 772 1936.618, 773.125 1934.178, 774.500 1932 C 775.875 1929.822, 777 1927.356, 777 1926.520 C 777 1925.684, 777.441 1925, 777.981 1925 C 778.520 1925, 779.244 1923.875, 779.589 1922.500 C 779.934 1921.125, 780.618 1920, 781.108 1920 C 781.599 1920, 782 1919.295, 782 1918.433 C 782 1917.572, 783.038 1915.434, 784.307 1913.683 C 785.575 1911.932, 787.488 1908.700, 788.557 1906.500 C 789.626 1904.300, 790.837 1902.350, 791.250 1902.167 C 791.663 1901.983, 792 1901.026, 792 1900.039 C 792 1899.052, 792.675 1897.685, 793.500 1897 C 794.325 1896.315, 795 1895.351, 795 1894.856 C 795 1894.042, 799.764 1886.204, 800.991 1885 C 801.995 1884.014, 804.069 1880.467, 804.646 1878.750 C 804.969 1877.787, 805.631 1877, 806.117 1877 C 806.602 1877, 807 1876.305, 807 1875.456 C 807 1874.607, 808.125 1872.699, 809.500 1871.217 C 810.875 1869.734, 812 1868.148, 812 1867.693 C 812 1867.239, 813.125 1865.392, 814.500 1863.589 C 815.875 1861.786, 817 1859.986, 817 1859.589 C 817 1859.192, 818.125 1857.392, 819.500 1855.589 C 820.875 1853.786, 822 1852.018, 822 1851.660 C 822 1851.302, 825.375 1846.324, 829.500 1840.597 C 833.625 1834.870, 837 1829.911, 837 1829.577 C 837 1829.243, 839.250 1825.876, 842 1822.095 C 844.750 1818.314, 847 1814.829, 847 1814.350 C 847 1813.871, 848.125 1812.266, 849.500 1810.783 C 850.875 1809.301, 852 1807.894, 852 1807.658 C 852 1807.421, 853.913 1804.442, 856.250 1801.037 C 858.587 1797.631, 860.964 1794.093, 861.531 1793.173 C 863.575 1789.856, 870.384 1779.501, 871.171 1778.512 C 872.314 1777.075, 882.829 1763.701, 883.761 1762.500 C 884.187 1761.950, 887.653 1757.225, 891.464 1752 C 895.274 1746.775, 898.866 1741.997, 899.446 1741.383 C 901.517 1739.188, 904.581 1735.437, 907.517 1731.500 C 909.158 1729.300, 911.069 1726.899, 911.765 1726.163 C 912.461 1725.428, 914.258 1723.178, 915.759 1721.163 C 917.260 1719.149, 918.748 1717.275, 919.064 1717 C 919.381 1716.725, 921.602 1713.800, 924 1710.500 C 926.398 1707.200, 928.648 1704.275, 929 1704 C 930.854 1702.551, 938 1691.866, 938 1690.543 C 938 1689.694, 938.401 1689, 938.892 1689 C 940.100 1689, 941.143 1684.537, 940.392 1682.579 C 939.199 1679.470, 936.351 1681.171, 926.232 1691.037 M 2100.716 1701.427 C 2099.932 1702.211, 2097.957 1703.674, 2096.329 1704.677 C 2092.841 1706.825, 2073.369 1721.952, 2067.548 1727.036 C 2065.322 1728.980, 2061.862 1731.778, 2059.860 1733.253 C 2057.858 1734.728, 2054.831 1737.323, 2053.134 1739.020 C 2050.422 1741.732, 2050.197 1742.365, 2051.274 1744.252 C 2052.949 1747.185, 2053.503 1747.969, 2056.747 1752 C 2058.296 1753.925, 2060.876 1757.300, 2062.479 1759.500 C 2064.082 1761.700, 2065.646 1763.725, 2065.953 1764 C 2067.699 1765.561, 2077.432 1777.559, 2082.178 1784 C 2089.481 1793.911, 2091.601 1795.776, 2093.809 1794.236 C 2094.739 1793.586, 2096.942 1792.326, 2098.704 1791.436 C 2100.466 1790.545, 2102.434 1789.182, 2103.076 1788.408 C 2103.719 1787.634, 2104.757 1787, 2105.383 1787 C 2106.008 1787, 2107.669 1785.935, 2109.073 1784.633 C 2110.477 1783.331, 2113.239 1781.193, 2115.210 1779.883 C 2122.370 1775.122, 2140.568 1761.693, 2143.250 1759.191 C 2144.762 1757.780, 2146 1755.654, 2146 1754.467 C 2146 1751.853, 2143.775 1747.209, 2141.196 1744.441 C 2140.155 1743.323, 2139.122 1741.929, 2138.901 1741.343 C 2138.681 1740.757, 2137.290 1738.753, 2135.810 1736.889 C 2134.331 1735.025, 2128.129 1726.810, 2122.028 1718.634 C 2115.927 1710.458, 2109.937 1702.935, 2108.718 1701.917 C 2106.047 1699.689, 2102.662 1699.481, 2100.716 1701.427 M 2024.450 1760.762 C 2021.177 1763.381, 2016.025 1767.291, 2013 1769.452 C 2003.536 1776.212, 1980.824 1793.995, 1979.765 1795.474 C 1977.899 1798.080, 1979.518 1801.854, 1986.991 1812.314 C 1995.145 1823.729, 1995.801 1824.561, 2004.500 1834.528 C 2019.381 1851.579, 2022.224 1852.858, 2030 1846 C 2032.475 1843.817, 2034.982 1842.024, 2035.570 1842.016 C 2036.159 1842.007, 2038.409 1840.495, 2040.570 1838.655 C 2042.732 1836.815, 2045.001 1835.127, 2045.613 1834.905 C 2046.872 1834.447, 2050.582 1831.647, 2059.068 1824.750 C 2062.282 1822.138, 2065.325 1820, 2065.829 1820 C 2066.333 1820, 2068.628 1817.958, 2070.928 1815.462 C 2075.450 1810.557, 2075.603 1808.856, 2071.959 1804 C 2070.927 1802.625, 2066.857 1797, 2062.915 1791.500 C 2058.972 1786, 2051.430 1775.763, 2046.154 1768.750 C 2034.631 1753.435, 2033.928 1753.176, 2024.450 1760.762 M 2156.438 1771.299 C 2153.120 1773.684, 2143.812 1781.144, 2143 1782.070 C 2142.725 1782.383, 2139.800 1784.602, 2136.500 1787 C 2133.200 1789.398, 2130.275 1791.627, 2130 1791.953 C 2129.725 1792.279, 2128.243 1793.346, 2126.707 1794.324 C 2122.009 1797.315, 2107.554 1809.124, 2106.639 1810.718 C 2105.760 1812.250, 2106.498 1814.230, 2109.761 1819.092 C 2113.121 1824.099, 2121.694 1835.512, 2123.532 1837.426 C 2124.099 1838.017, 2127.330 1842.325, 2130.711 1847 C 2139.125 1858.634, 2145.196 1865, 2147.876 1865 C 2149.808 1865, 2154.601 1862.612, 2156 1860.953 C 2156.275 1860.627, 2159.200 1858.395, 2162.500 1855.993 C 2165.800 1853.591, 2168.650 1851.260, 2168.833 1850.813 C 2169.017 1850.366, 2169.692 1849.993, 2170.333 1849.984 C 2170.975 1849.975, 2172.996 1848.649, 2174.825 1847.037 C 2176.653 1845.425, 2179.500 1843.070, 2181.150 1841.803 C 2182.801 1840.536, 2186.319 1837.813, 2188.969 1835.750 C 2191.618 1833.688, 2194.284 1832, 2194.893 1832 C 2195.502 1832, 2196 1831.550, 2196 1831 C 2196 1830.450, 2196.605 1830, 2197.345 1830 C 2199.150 1830, 2202 1826.745, 2202 1824.685 C 2202 1822.991, 2198.314 1817.520, 2187.258 1802.807 C 2183.825 1798.238, 2176.889 1788.763, 2171.846 1781.750 C 2166.547 1774.382, 2162.006 1769.021, 2161.088 1769.049 C 2160.215 1769.076, 2158.122 1770.089, 2156.438 1771.299 M 2280.500 1789.670 C 2278.300 1791.642, 2273.125 1795.750, 2269 1798.797 C 2264.875 1801.845, 2259.700 1805.959, 2257.500 1807.941 C 2255.300 1809.922, 2250.262 1813.689, 2246.305 1816.312 C 2237.309 1822.274, 2233.639 1826.427, 2234.464 1829.712 C 2234.794 1831.029, 2237.638 1835.512, 2240.783 1839.674 C 2243.927 1843.836, 2247.400 1848.471, 2248.500 1849.975 C 2250.611 1852.861, 2252.545 1855.296, 2263.611 1869 C 2270.794 1877.894, 2274.817 1881.934, 2276.500 1881.941 C 2277.050 1881.944, 2280.024 1880.046, 2283.110 1877.723 C 2286.195 1875.400, 2292.270 1870.829, 2296.610 1867.564 C 2300.949 1864.300, 2304.725 1861.375, 2305 1861.064 C 2305.275 1860.754, 2306.221 1860.050, 2307.103 1859.500 C 2307.984 1858.950, 2312.034 1855.969, 2316.103 1852.875 C 2325.470 1845.752, 2329.292 1841.495, 2328.516 1839.050 C 2328.028 1837.512, 2319.156 1824.542, 2315.911 1820.622 C 2312.903 1816.989, 2307.231 1809.346, 2306.895 1808.474 C 2306.678 1807.909, 2302.900 1802.621, 2298.501 1796.724 C 2289.124 1784.154, 2287.404 1783.480, 2280.500 1789.670 M 1980.917 1839.528 C 1979.588 1840.918, 1969.500 1848.409, 1958.500 1856.173 C 1947.500 1863.938, 1937.269 1871.428, 1935.764 1872.819 L 1933.028 1875.348 1935.514 1878.607 C 1936.881 1880.400, 1938 1882.309, 1938 1882.850 C 1938 1883.391, 1938.366 1883.983, 1938.813 1884.167 C 1939.668 1884.518, 1944.405 1890.639, 1954.716 1904.719 C 1958.135 1909.388, 1964.258 1916.745, 1968.323 1921.070 L 1975.713 1928.932 1979.607 1925.399 C 1981.748 1923.456, 1986.406 1919.309, 1989.957 1916.183 C 1993.508 1913.057, 1998.233 1908.764, 2000.457 1906.643 C 2002.681 1904.521, 2008.100 1900.420, 2012.500 1897.529 C 2025.072 1889.267, 2024.842 1889.965, 2018.164 1880.317 C 2015.049 1875.816, 2010.588 1869.648, 2008.250 1866.610 C 2005.912 1863.571, 2004 1860.616, 2004 1860.043 C 2004 1859.469, 2003.550 1859, 2003 1859 C 2002.450 1859, 2002 1858.433, 2002 1857.740 C 2002 1857.047, 2000.875 1855.266, 1999.500 1853.783 C 1998.125 1852.301, 1997 1850.727, 1997 1850.286 C 1997 1848.901, 1985.864 1837, 1984.568 1837 C 1983.889 1837, 1982.246 1838.138, 1980.917 1839.528 M 2209 1845.619 C 2205.975 1848.135, 2202.150 1851.388, 2200.500 1852.847 C 2198.850 1854.306, 2196.534 1856.175, 2195.353 1857 C 2173.626 1872.181, 2163 1881.124, 2163 1884.228 C 2163 1885.917, 2167.436 1893.883, 2168.998 1895 C 2169.383 1895.275, 2170.778 1897.130, 2172.099 1899.122 C 2174.969 1903.451, 2183.096 1914.294, 2184 1915 C 2184.352 1915.275, 2186.455 1917.979, 2188.674 1921.010 C 2194.848 1929.441, 2203.012 1938.003, 2204.850 1937.973 C 2206.464 1937.947, 2213.219 1933.180, 2222.073 1925.819 C 2228.486 1920.488, 2236.628 1914.138, 2243.500 1909.109 C 2250.927 1903.674, 2257 1897.972, 2257 1896.434 C 2257 1894.527, 2241.965 1873.161, 2236.295 1867.010 C 2235.033 1865.641, 2234 1864.043, 2234 1863.460 C 2234 1862.877, 2231.750 1859.608, 2229 1856.195 C 2226.250 1852.782, 2223.996 1849.655, 2223.991 1849.245 C 2223.976 1847.969, 2216.938 1840.999, 2215.687 1841.022 C 2215.034 1841.033, 2212.025 1843.102, 2209 1845.619 M 2138.500 1900.529 C 2137.400 1901.335, 2135.393 1902.783, 2134.040 1903.747 C 2132.687 1904.711, 2129.311 1907.300, 2126.539 1909.500 C 2123.767 1911.700, 2119.699 1914.842, 2117.500 1916.482 C 2115.300 1918.122, 2112.548 1920.484, 2111.385 1921.732 C 2110.222 1922.979, 2108.931 1924, 2108.517 1924 C 2107.856 1924, 2102.803 1927.829, 2092.894 1935.839 C 2089.118 1938.890, 2089.244 1941.202, 2093.500 1947 C 2095.425 1949.622, 2097 1952.069, 2097 1952.437 C 2097 1953.063, 2104.960 1963.910, 2110.175 1970.389 C 2111.454 1971.979, 2115.485 1976.512, 2119.134 1980.465 C 2122.783 1984.417, 2126.478 1989.024, 2127.347 1990.704 C 2128.215 1992.383, 2129.635 1994.030, 2130.503 1994.363 C 2132.110 1994.979, 2136 1993.137, 2136 1991.759 C 2136 1991.342, 2136.447 1991, 2136.993 1991 C 2138.674 1991, 2165.460 1970.608, 2178.750 1959.210 C 2186.027 1952.969, 2185.866 1951.608, 2176.277 1938.255 C 2172.029 1932.340, 2168.184 1927.050, 2167.731 1926.500 C 2167.279 1925.950, 2165.917 1924.094, 2164.704 1922.376 C 2160.123 1915.882, 2154.021 1908.151, 2149.931 1903.657 C 2145.381 1898.657, 2142.231 1897.795, 2138.500 1900.529 M 2027.833 1903.813 C 2027.650 1904.260, 2024.800 1906.591, 2021.500 1908.993 C 2018.200 1911.395, 2015.275 1913.660, 2015 1914.027 C 2014.088 1915.244, 1993.200 1929.999, 1992.342 1930.033 C 1991.879 1930.051, 1989.527 1932.030, 1987.116 1934.432 C 1982.067 1939.461, 1982.046 1941.295, 1986.973 1947 C 1988.635 1948.925, 1989.996 1950.805, 1989.998 1951.179 C 1989.999 1951.552, 1990.585 1952.452, 1991.300 1953.179 C 1992.015 1953.905, 1994.571 1957.200, 1996.980 1960.500 C 1999.389 1963.800, 2001.673 1966.725, 2002.054 1967 C 2002.436 1967.275, 2003.592 1968.879, 2004.624 1970.564 C 2006.963 1974.385, 2018.757 1988.044, 2021.645 1990.277 C 2023.684 1991.853, 2023.992 1991.789, 2027.895 1988.961 C 2030.153 1987.326, 2032 1985.352, 2032 1984.575 C 2032 1983.799, 2033.688 1982.131, 2035.750 1980.869 C 2037.813 1979.607, 2040.096 1977.994, 2040.825 1977.284 C 2041.554 1976.574, 2044.125 1974.634, 2046.538 1972.974 C 2048.951 1971.313, 2051.280 1969.371, 2051.713 1968.658 C 2053.141 1966.304, 2063.918 1958.792, 2067.744 1957.483 C 2073.071 1955.661, 2073.022 1953.306, 2067.483 1944.975 C 2064.921 1941.121, 2062.286 1937.413, 2061.627 1936.734 C 2060.968 1936.055, 2056.224 1929.875, 2051.084 1923 C 2038.424 1906.065, 2035.404 1903, 2031.380 1903 C 2029.613 1903, 2028.017 1903.366, 2027.833 1903.813" stroke="none" fill="#1274b9" fill-rule="evenodd"/></svg>